Coordinates
version=1
nRows=17
nColumns=40
inDegrees=yes

Units are S.I. units (second, meters, Newtons, ...)
If the header above contains a line with 'inDegrees', this indicates whether rotational values are in degrees (yes) or radians (no).

endheader
time	pelvis_tilt	pelvis_list	pelvis_rotation	pelvis_tx	pelvis_ty	pelvis_tz	hip_flexion_r	hip_adduction_r	hip_rotation_r	knee_angle_r	knee_angle_r_beta	ankle_angle_r	subtalar_angle_r	mtp_angle_r	hip_flexion_l	hip_adduction_l	hip_rotation_l	knee_angle_l	knee_angle_l_beta	ankle_angle_l	subtalar_angle_l	mtp_angle_l	lumbar_extension	lumbar_bending	lumbar_rotation	arm_flex_r	arm_add_r	arm_rot_r	elbow_flex_r	pro_sup_r	wrist_flex_r	wrist_dev_r	arm_flex_l	arm_add_l	arm_rot_l	elbow_flex_l	pro_sup_l	wrist_flex_l	wrist_dev_l
      2.33500000	    -12.72129999	      1.45833756	      0.66234509	     -0.36263674	      0.85198465	     -0.80914698	     45.88429572	     -0.95342849	    -10.64332725	     59.75446897	      1.04291223	     13.93402424	      0.00000000	      0.00000000	     35.48852855	    -10.31990671	      5.48154387	    102.08361890	      1.78169526	    -17.18014137	      0.00000000	      0.00000000	     -8.96243315	      3.75452873	     -2.36650910	     89.65085296	    -17.58139868	     41.73546719	     63.37945156	     87.29240561	      0.00000000	      0.00000000	     89.60707610	     -9.61340282	     37.43573675	     57.13804742	     82.77569757	      0.00000000	      0.00000000
      2.34000000	    -12.74995008	      1.43808281	      0.64947022	     -0.36293518	      0.85075159	     -0.80917835	     46.09293574	     -0.91790531	    -10.59287421	     60.06813382	      1.04838671	     14.12526213	      0.00000000	      0.00000000	     35.55256486	    -10.37082407	      5.51547487	    102.22686170	      1.78419532	    -17.30904579	      0.00000000	      0.00000000	     -9.01047452	      3.80124463	     -2.37284067	     89.66671268	    -17.53734772	     41.67842416	     63.44578295	     87.16129778	      0.00000000	      0.00000000	     89.61987388	     -9.63320388	     37.32976170	     57.17582456	     83.70894555	      0.00000000	      0.00000000
      2.34500000	    -12.74127683	      1.33031670	      0.62317271	     -0.36316403	      0.84971678	     -0.80925304	     46.19364062	     -0.79169496	    -10.57693631	     60.24844328	      1.05153370	     14.26138467	      0.00000000	      0.00000000	     35.58296521	    -10.51304421	      5.60555590	    102.31039569	      1.78565326	    -17.92469550	      0.00000000	      0.00000000	     -9.09975692	      3.91299816	     -2.24989904	     89.67030473	    -17.76514701	     41.67830081	     63.64850652	     86.80066586	      0.00000000	      0.00000000	     89.64198870	     -9.57218238	     37.53009787	     57.35182966	     82.39245122	      0.00000000	      0.00000000
      2.35000000	    -12.80906637	      1.27915177	      0.57581497	     -0.36362032	      0.84835148	     -0.80926551	     46.46473647	     -0.67635804	    -10.45139583	     60.54615647	      1.05672978	     14.45756408	      0.00000000	      0.00000000	     35.67960090	    -10.58761327	      5.66164675	    102.49505234	      1.78887613	    -17.79194000	      0.00000000	      0.00000000	     -9.07215980	      3.98660818	     -2.28909484	     89.68162741	    -17.50694463	     41.48061093	     63.38476489	     87.19335689	      0.00000000	      0.00000000	     89.65238188	     -9.58718701	     37.29000945	     57.16766343	     82.59542740	      0.00000000	      0.00000000
      2.35500000	    -12.82937971	      1.15545913	      0.52760523	     -0.36384254	      0.84714686	     -0.80923023	     46.63060722	     -0.50101729	    -10.39709221	     60.78454394	      1.06089043	     14.64511237	      0.00000000	      0.00000000	     35.70560542	    -10.72994877	      5.77095839	    102.63232653	      1.79127202	    -17.67789693	      0.00000000	      0.00000000	     -9.08642783	      4.12809229	     -2.29119971	     89.70635670	    -17.40789539	     41.73590326	     63.17395990	     84.92079888	      0.00000000	      0.00000000	     89.64583286	     -9.52121271	     37.11461530	     57.07000247	     80.26843204	      0.00000000	      0.00000000
      2.36000000	    -12.84904590	      1.14661815	      0.53415910	     -0.36433154	      0.84602718	     -0.80943409	     46.83843481	     -0.51755248	    -10.40718713	     61.08880299	      1.06620075	     14.75681924	      0.00000000	      0.00000000	     35.79793627	    -10.75300520	      5.77225902	    102.72167249	      1.79283140	    -18.19862578	      0.00000000	      0.00000000	     -9.17107925	      4.15291968	     -2.25320588	     89.70261382	    -17.48496343	     41.33153347	     63.35876887	     87.14250213	      0.00000000	      0.00000000	     89.66635053	     -9.47611551	     36.97208806	     57.10554818	     83.81584389	      0.00000000	      0.00000000
      2.36500000	    -12.89880821	      1.10284191	      0.50628071	     -0.36470293	      0.84472201	     -0.80949032	     47.10515441	     -0.43512521	    -10.29953898	     61.43788676	      1.07229341	     14.88884128	      0.00000000	      0.00000000	     35.88885598	    -10.82761708	      5.81054034	    102.83775312	      1.79485739	    -18.41765456	      0.00000000	      0.00000000	     -9.17558298	      4.20995984	     -2.24646559	     89.70879847	    -17.44761066	     41.26599658	     63.33482340	     87.07761889	      0.00000000	      0.00000000	     89.68009090	     -9.48944662	     36.89891683	     57.05988347	     84.08325295	      0.00000000	      0.00000000
      2.37000000	    -12.95191123	      1.05143038	      0.48823290	     -0.36507789	      0.84351687	     -0.80956101	     47.32321646	     -0.37032192	    -10.27388698	     61.68898458	      1.07667589	     15.04808336	      0.00000000	      0.00000000	     35.96365822	    -10.89408458	      5.85049844	    102.94634145	      1.79675261	    -18.53084539	      0.00000000	      0.00000000	     -9.18771593	      4.27456296	     -2.25311433	     89.71681626	    -17.35196699	     41.10917661	     63.22952679	     87.09436788	      0.00000000	      0.00000000	     89.68896320	     -9.42118007	     36.75313839	     57.03334149	     82.95885784	      0.00000000	      0.00000000
      2.37500000	    -12.92550975	      0.93293156	      0.47264203	     -0.36542160	      0.84242746	     -0.80967229	     47.44344440	     -0.24135914	    -10.26325434	     61.91573548	      1.08063344	     15.17760038	      0.00000000	      0.00000000	     35.99557145	    -11.01224367	      5.94619681	    103.05945003	      1.79872673	    -18.79964774	      0.00000000	      0.00000000	     -9.28434954	      4.43090964	     -2.21755867	     89.72443586	    -17.34109689	     41.01488969	     63.23849400	     87.24043941	      0.00000000	      0.00000000	     89.69825081	     -9.43707611	     36.69737598	     57.12222669	     82.87783613	      0.00000000	      0.00000000
      2.38000000	    -12.90888207	      0.86155981	      0.43977660	     -0.36576146	      0.84130398	     -0.80970812	     47.57674674	     -0.13653075	    -10.21399196	     62.16944934	      1.08506159	     15.36709146	      0.00000000	      0.00000000	     36.00961613	    -11.09442732	      6.00226773	    103.16579435	      1.80058279	    -19.04400434	      0.00000000	      0.00000000	     -9.38931007	      4.51956487	     -2.21239991	     89.73482445	    -17.27798726	     40.84573253	     63.22563357	     87.26555565	      0.00000000	      0.00000000	     89.70397706	     -9.40192830	     36.55611171	     57.05426226	     82.60520093	      0.00000000	      0.00000000
      2.38500000	    -12.92661262	      0.82759207	      0.38323135	     -0.36612461	      0.84018736	     -0.80978270	     47.77616686	     -0.04445284	    -10.09941762	     62.43960165	      1.08977663	     15.48047173	      0.00000000	      0.00000000	     36.01988868	    -11.14032679	      6.00926956	    103.25989302	      1.80222512	    -19.02266794	      0.00000000	      0.00000000	     -9.41925728	      4.57311926	     -2.18612522	     89.74534016	    -17.22847206	     41.10741466	     63.12613012	     85.30083527	      0.00000000	      0.00000000	     89.71395718	     -9.38599650	     36.55238799	     57.06153461	     80.56219790	      0.00000000	      0.00000000
      2.39000000	    -12.93560327	      0.74435636	      0.27693843	     -0.36644887	      0.83904437	     -0.80971529	     47.95340312	      0.13181796	     -9.99799313	     62.69180323	      1.09417838	     15.54814720	      0.00000000	      0.00000000	     36.06792407	    -11.29669296	      5.96379220	    103.31335320	      1.80315817	    -19.60810496	      0.00000000	      0.00000000	     -9.50793709	      4.64438398	     -2.03347111	     89.75007488	    -17.16592109	     40.71996879	     63.03014921	     87.16095477	      0.00000000	      0.00000000	     89.72331692	     -9.29608543	     36.29576255	     57.02149577	     84.03444195	      0.00000000	      0.00000000
      2.39500000	    -12.98590474	      0.71543321	      0.30926819	     -0.36693692	      0.83781779	     -0.80998141	     48.19272669	      0.11229453	    -10.01335341	     62.98690002	      1.09932879	     15.66550758	      0.00000000	      0.00000000	     36.18318216	    -11.27341123	      6.02105520	    103.41911339	      1.80500404	    -19.86347096	      0.00000000	      0.00000000	     -9.53440248	      4.71514946	     -2.10120883	     89.75137659	    -17.21969690	     40.61081249	     63.18653156	     87.12443793	      0.00000000	      0.00000000	     89.73377285	     -9.37157018	     36.27937253	     57.17373043	     83.84207727	      0.00000000	      0.00000000
      2.40000000	    -12.95362217	      0.56084206	      0.35299620	     -0.36734524	      0.83681554	     -0.81022273	     48.28448866	      0.21249229	    -10.07902572	     63.19560394	      1.10297136	     15.83646867	      0.00000000	      0.00000000	     36.23118708	    -11.35288651	      6.20678058	    103.52202476	      1.80680018	    -20.17910424	      0.00000000	      0.00000000	     -9.64276544	      4.91242603	     -2.12674465	     89.75679746	    -17.21148298	     40.47843623	     63.17790076	     87.02893682	      0.00000000	      0.00000000	     89.74211779	     -9.29694860	     36.08133546	     57.09962590	     84.23398697	      0.00000000	      0.00000000
      2.40500000	    -12.98360718	      0.53079045	      0.31566956	     -0.36780545	      0.83561484	     -0.81035632	     48.51378465	      0.25866295	    -10.01509741	     63.49461293	      1.10819005	     15.90020353	      0.00000000	      0.00000000	     36.30969777	    -11.37178958	      6.18426850	    103.60799125	      1.80830058	    -20.28742305	      0.00000000	      0.00000000	     -9.69130702	      4.96488928	     -2.12899710	     89.76504885	    -17.10889381	     40.30902589	     63.11387340	     87.14737103	      0.00000000	      0.00000000	     89.75118330	     -9.30785805	     35.97951501	     57.14552100	     83.66815982	      0.00000000	      0.00000000
      2.41000000	    -12.97421663	      0.39031686	      0.33546660	     -0.36813849	      0.83457700	     -0.81051711	     48.63843202	      0.34918202	    -10.09890123	     63.71154876	      1.11197630	     16.02272761	      0.00000000	      0.00000000	     36.33973148	    -11.47133831	      6.31961040	    103.66313634	      1.80926304	    -20.58719600	      0.00000000	      0.00000000	     -9.78634989	      5.14111361	     -2.12264506	     89.76999696	    -17.14848066	     40.22771003	     63.17117300	     87.16890059	      0.00000000	      0.00000000	     89.75553871	     -9.27069507	     35.88590508	     57.18432138	     82.99711465	      0.00000000	      0.00000000
      2.41500000	    -13.04396676	      0.40103672	      0.29584451	     -0.36858453	      0.83336204	     -0.81071929	     48.90128907	      0.35892639	    -10.01119138	     64.00423628	      1.11708466	     16.14635485	      0.00000000	      0.00000000	     36.46244978	    -11.41917677	      6.29650663	    103.70446364	      1.80998434	    -21.10164408	      0.00000000	      0.00000000	     -9.78977698	      5.15179033	     -2.05574431	     89.77578506	    -17.19548504	     40.17391035	     63.28173779	     86.90561788	      0.00000000	      0.00000000	     89.76620441	     -9.27190565	     35.98100316	     57.28784546	     82.33624981	      0.00000000	      0.00000000
